<?xml version="1.0" standalone="no"?>
<!DOCTYPE svg PUBLIC "-//W3C//DTD SVG 20010904//EN"
 "http://www.w3.org/TR/2001/REC-SVG-20010904/DTD/svg10.dtd">
<svg version="1.0" xmlns="http://www.w3.org/2000/svg"
 width="736.000000pt" height="668.000000pt" viewBox="0 0 736.000000 668.000000"
 preserveAspectRatio="xMidYMid meet">

<g transform="translate(0.000000,668.000000) scale(0.100000,-0.100000)"
fill="#224A12" stroke="none">
<path d="M1834 6305 c-22 -34 -22 -136 2 -211 10 -32 37 -87 60 -121 23 -35
40 -63 38 -63 -2 0 -41 23 -85 51 -73 45 -83 49 -97 36 -21 -22 -9 -90 28
-154 35 -61 119 -154 213 -235 37 -32 65 -58 62 -58 -3 0 -64 29 -136 66 -145
72 -159 73 -159 2 0 -73 28 -108 132 -165 313 -172 867 -371 1290 -462 54 -12
102 -21 108 -21 5 0 10 18 10 40 0 48 27 80 68 80 82 0 255 -125 587 -424 72
-65 177 -149 235 -187 138 -92 302 -173 329 -164 12 3 21 9 21 13 -1 4 -26 27
-56 52 -88 71 -210 203 -336 361 -245 308 -413 465 -478 444 -13 -4 -21 -19
-26 -51 -6 -43 -8 -45 -33 -39 -46 11 -262 119 -371 185 -151 90 -437 286
-563 383 -223 174 -403 362 -524 548 -34 52 -65 89 -75 89 -32 0 -51 -115 -28
-174 24 -63 -28 -13 -115 112 -33 47 -65 87 -72 89 -6 2 -19 -7 -29 -22z m631
-604 c191 -148 471 -329 678 -440 53 -29 97 -54 97 -56 0 -14 -194 87 -385
201 -236 140 -464 315 -615 470 l-75 77 100 -88 c55 -48 145 -122 200 -164z
m-250 -22 c181 -121 396 -241 705 -396 167 -84 302 -153 299 -153 -14 0 -258
109 -414 184 -175 84 -337 174 -460 255 -79 51 -255 181 -255 188 0 5 4 3 125
-78z m185 -302 c184 -84 531 -225 707 -288 162 -58 91 -43 -104 21 -306 101
-579 217 -753 320 -108 63 -96 59 150 -53z"/>
<path d="M1140 5945 c-17 -21 -8 -141 14 -184 38 -73 -6 -47 -144 85 -55 52
-103 94 -109 94 -18 0 -31 -37 -31 -89 0 -100 90 -272 177 -338 19 -15 31 -29
25 -31 -5 -1 -52 13 -103 33 -51 20 -99 33 -106 31 -7 -3 -13 -19 -13 -37 0
-99 145 -240 374 -366 74 -41 78 -44 41 -38 -22 3 -97 22 -167 42 -106 30
-129 34 -142 23 -22 -17 -20 -47 8 -105 43 -93 167 -188 340 -261 45 -18 74
-33 66 -34 -8 0 -71 11 -140 25 -141 27 -170 25 -170 -12 0 -84 122 -190 269
-234 35 -10 40 -14 25 -20 -11 -4 -45 -8 -76 -8 -31 -1 -63 -4 -72 -7 -72 -28
96 -158 242 -187 l63 -13 -26 -24 c-14 -13 -25 -32 -25 -42 0 -39 140 -94 263
-105 37 -3 67 -9 67 -13 0 -4 -9 -15 -20 -25 -26 -24 -26 -69 1 -96 45 -45
216 -99 314 -99 41 0 42 -2 14 -39 -32 -43 -23 -81 26 -108 50 -27 196 -48
288 -40 l69 6 -36 -35 c-95 -92 8 -184 210 -188 l74 -1 -6 -32 c-5 -26 -2 -33
18 -44 31 -17 170 -14 230 4 l46 15 -1 -26 c-4 -53 107 -69 225 -32 34 11 64
20 66 20 1 0 -3 -9 -10 -20 -10 -15 -10 -24 -2 -38 18 -27 172 -24 237 5 44
21 47 21 47 4 0 -43 61 -57 160 -37 40 9 83 22 95 30 21 14 24 14 29 -1 5 -13
18 -15 79 -10 39 3 92 13 116 21 42 15 45 15 58 -3 13 -20 70 -40 163 -59 l45
-10 -39 -1 c-22 0 -66 4 -99 11 -57 12 -60 11 -115 -17 -31 -16 -95 -55 -142
-87 -201 -135 -278 -254 -288 -444 -8 -170 42 -305 213 -574 147 -230 175
-308 153 -415 -11 -52 -30 -74 -166 -195 -86 -76 -82 -140 15 -283 31 -45 89
-146 130 -224 69 -134 73 -146 73 -207 0 -78 11 -111 52 -153 30 -31 30 -32
23 -103 -12 -120 28 -174 162 -219 77 -26 180 -44 209 -37 48 12 21 88 -85
236 -46 64 -46 65 -52 166 -6 115 -17 139 -79 182 -32 23 -44 42 -73 117 -45
117 -83 238 -95 302 -16 92 5 118 182 214 128 70 225 158 265 242 61 125 77
328 45 544 -21 140 -15 227 19 286 41 69 65 82 32 17 -20 -40 -29 -75 -33
-126 l-4 -71 77 73 c121 116 300 255 422 330 309 189 511 360 631 537 l53 77
-91 0 c-93 0 -225 23 -236 42 -4 6 1 8 12 5 90 -26 305 -12 377 24 79 41 171
70 251 80 138 17 150 5 135 -146 -11 -121 -21 -157 -54 -201 -14 -19 -31 -49
-37 -67 -18 -52 -23 -56 -69 -43 -36 9 -42 8 -55 -9 -21 -28 -53 -137 -66
-223 -10 -63 -10 -75 5 -89 13 -14 20 -14 47 -3 63 26 153 92 240 176 105 101
108 107 173 370 55 218 81 356 73 388 -3 12 -18 35 -33 50 -25 26 -32 27 -88
22 -33 -3 -139 -9 -236 -12 -161 -6 -180 -4 -220 13 -59 27 -104 66 -135 120
-32 54 -27 67 7 16 29 -45 105 -101 149 -110 l33 -6 -7 61 c-4 34 -13 83 -21
110 -15 51 -88 163 -158 243 -88 101 -147 258 -147 394 l0 71 -37 13 c-83 30
-165 145 -162 227 l1 29 7 -30 c19 -77 79 -153 149 -189 15 -7 59 -19 97 -25
125 -19 159 -35 240 -112 45 -43 81 -59 130 -59 46 0 51 14 10 28 -18 7 -39
19 -45 27 -11 13 -8 13 23 0 55 -23 89 -19 120 13 31 32 66 107 67 140 0 42
-29 86 -75 116 -62 38 -231 227 -282 313 -52 86 -151 180 -234 222 -87 43 -99
42 -88 -10 17 -75 3 -51 -25 43 -32 107 -72 191 -89 186 -7 -2 -20 -21 -31
-42 -26 -52 -25 -171 1 -248 11 -31 15 -55 10 -51 -14 8 -44 84 -52 132 l-7
44 -57 -6 c-108 -10 -249 -81 -342 -172 -28 -27 -73 -88 -101 -135 -98 -163
-166 -245 -271 -323 l-47 -36 35 -7 c47 -8 98 0 146 25 36 19 39 19 39 3 0
-55 -107 -219 -199 -305 -62 -58 -51 -67 46 -43 37 9 67 15 69 14 1 -2 -7 -31
-17 -65 -15 -48 -33 -77 -75 -122 l-55 -59 58 -22 c67 -25 167 -50 204 -50 21
0 33 13 73 79 66 109 76 146 87 301 25 366 38 432 106 549 46 79 142 178 203
209 44 23 45 23 15 1 -72 -54 -161 -157 -198 -229 -62 -125 -87 -254 -102
-543 -7 -135 -22 -196 -71 -285 -36 -66 -40 -82 -24 -82 18 0 93 -54 81 -58
-21 -7 -193 29 -309 64 -291 88 -514 221 -782 466 -328 298 -454 384 -534 364
-24 -6 -26 -11 -26 -60 0 -29 -2 -55 -5 -58 -18 -17 -375 70 -665 164 -619
199 -1058 437 -1385 750 -125 120 -129 123 -145 103z m552 -566 c255 -128 506
-229 853 -345 121 -40 216 -73 211 -73 -4 -1 -67 15 -138 34 -466 126 -862
298 -1186 513 -119 79 -111 82 15 6 59 -36 170 -97 245 -135z m-302 -74 c281
-121 796 -284 1218 -385 73 -18 131 -34 129 -36 -6 -7 -333 62 -512 107 -317
81 -736 234 -890 325 -69 41 -63 39 55 -11z m4429 -149 c31 -33 22 -56 -23
-56 -39 0 -71 34 -64 67 3 14 7 12 18 -12 18 -35 50 -46 50 -17 0 11 -17 31
-40 47 -22 15 -40 29 -40 32 0 9 78 -38 99 -61z m-4162 -161 c203 -50 494
-108 743 -149 118 -19 240 -39 270 -44 101 -17 0 -12 -175 8 -355 42 -680 106
-905 179 -91 30 -158 61 -100 47 14 -4 89 -22 167 -41z m4543 -181 c0 -12 -18
-30 -24 -23 -2 2 -6 22 -10 44 l-6 40 20 -24 c11 -13 20 -29 20 -37z m-4473
-89 c203 -23 450 -35 750 -36 313 -2 291 -12 -52 -24 -241 -8 -461 3 -674 35
-122 19 -203 37 -169 39 9 1 74 -6 145 -14z m992 -140 c-8 -7 -257 -42 -435
-61 -180 -19 -669 -23 -744 -6 -36 8 0 10 170 11 118 1 303 6 410 11 199 10
542 39 549 46 6 6 55 5 50 -1z m28 -111 c-3 -3 -12 -4 -19 -1 -8 3 -5 6 6 6
11 1 17 -2 13 -5z m-127 -30 c-159 -40 -447 -92 -597 -108 -124 -14 -444 -23
-432 -12 2 2 45 7 94 10 300 22 643 65 865 110 150 31 191 31 70 0z m157 -115
c-33 -19 -232 -91 -344 -124 -61 -19 -166 -43 -233 -54 -129 -22 -310 -28
-310 -11 0 6 17 10 38 10 150 0 527 78 747 154 103 36 133 43 102 25z m161
-83 c-36 -33 -188 -126 -276 -170 -102 -51 -210 -93 -300 -115 -155 -39 -212
-39 -73 -1 165 46 519 206 631 284 44 32 53 32 18 2z m22 -202 c-107 -107
-219 -193 -314 -239 -106 -51 -112 -43 -12 18 102 61 221 150 326 241 41 36
77 65 80 66 2 0 -34 -39 -80 -86z m224 -66 c-40 -79 -109 -173 -181 -249 -74
-77 -182 -169 -200 -169 -4 0 33 42 83 93 104 106 199 215 264 304 49 66 61
74 34 21z m125 -170 c-54 -108 -89 -159 -163 -236 -87 -91 -108 -96 -38 -10
56 71 148 198 205 286 43 66 41 50 -4 -40z m217 -51 c-13 -99 -85 -220 -168
-278 -24 -18 -20 -8 28 63 55 80 117 201 130 254 11 42 17 18 10 -39z m202
-96 c-4 -60 -12 -89 -36 -138 -17 -34 -35 -64 -40 -67 -5 -3 4 37 19 90 16 52
32 125 35 161 10 93 28 55 22 -46z m188 22 c23 -55 20 -139 -6 -196 -21 -45
-51 -80 -37 -44 16 41 29 154 25 213 -2 35 -3 64 -1 64 1 0 10 -17 19 -37z
m2253 -663 c0 -14 -4 -34 -8 -45 -6 -15 -10 -6 -15 35 -4 30 -9 69 -11 85 -4
28 -3 27 15 -10 11 -22 19 -51 19 -65z m-1839 -2410 c12 -8 11 -10 -6 -10 -11
0 -47 -9 -79 -20 -66 -23 -78 -21 -39 5 48 31 98 41 124 25z"/>
<path d="M5656 5627 c-14 -21 -46 -102 -46 -116 0 -5 91 -51 102 -51 6 0 -10
169 -17 180 -10 16 -24 12 -39 -13z"/>
<path d="M5970 4094 c0 -6 7 -30 15 -53 8 -23 17 -65 21 -93 l7 -51 104 7 104
7 10 -30 c6 -17 18 -31 27 -31 47 0 149 24 160 38 17 22 15 136 -3 172 -20 39
-45 44 -174 37 -58 -3 -143 -2 -188 1 -60 5 -83 4 -83 -4z"/>
<path d="M6104 3566 c-24 -25 -52 -47 -63 -51 -10 -3 -26 -24 -35 -46 -14 -35
-19 -38 -35 -29 -11 5 -23 15 -26 20 -3 6 -17 10 -31 10 -45 0 -139 -162 -151
-261 l-6 -49 36 0 c42 0 103 25 198 82 82 48 138 102 203 192 51 72 63 108 47
149 -9 23 -16 27 -52 27 -36 0 -47 -6 -85 -44z m-145 -236 c0 -25 -7 -56 -15
-70 l-15 -25 5 34 c3 18 6 59 7 90 1 68 17 42 18 -29z"/>
<path d="M3363 2986 c-136 -26 -247 -97 -328 -211 -100 -140 -114 -200 -125
-550 -6 -188 -14 -305 -25 -355 -34 -158 -136 -314 -256 -391 -49 -31 -51 -33
-28 -42 13 -5 57 -7 97 -4 39 2 72 2 72 1 0 -11 -88 -59 -137 -74 l-58 -18 39
-17 c21 -9 66 -20 100 -24 l61 -6 -45 -27 c-51 -31 -123 -58 -151 -58 -26 0
-24 -16 4 -24 64 -17 197 4 262 43 21 12 40 20 42 17 10 -9 -55 -67 -107 -96
l-55 -30 65 0 c126 0 257 42 334 107 47 39 110 125 136 185 l24 53 9 -47 c9
-48 9 -48 26 -25 51 67 111 202 142 322 43 161 34 323 -28 544 -86 306 -33
515 146 573 41 13 45 17 62 73 10 33 19 61 19 62 0 1 -17 7 -37 12 -69 18
-186 21 -260 7z"/>
<path d="M4702 2486 c-62 -71 -62 -70 -51 -191 11 -121 5 -263 -16 -367 -17
-82 -71 -201 -114 -251 -37 -42 -133 -107 -239 -162 -72 -38 -122 -83 -122
-112 0 -8 27 -44 60 -80 33 -36 87 -114 122 -176 61 -108 62 -113 68 -203 6
-95 9 -101 64 -156 30 -31 30 -25 10 -150 -5 -32 -2 -41 35 -81 58 -63 126
-91 223 -92 42 0 79 3 83 7 16 16 -20 86 -128 252 -30 46 -32 55 -32 136 0 82
-2 89 -37 146 -59 96 -124 233 -148 313 -30 98 -23 120 87 247 105 121 142
182 180 289 27 77 28 87 26 250 -1 106 -8 217 -20 294 l-19 124 -32 -37z m-70
-1822 c-29 -7 -62 -18 -72 -24 -33 -18 -36 -10 -5 15 23 19 41 25 80 24 l50 0
-53 -15z"/>
</g>
</svg>
